<?xml version="1.0" encoding="utf-8"?>
<!-- Generator: Adobe Illustrator 16.2.0, SVG Export Plug-In . SVG Version: 6.00 Build 0)  -->
<!DOCTYPE svg PUBLIC "-//W3C//DTD SVG 1.1//EN" "http://www.w3.org/Graphics/SVG/1.1/DTD/svg11.dtd">
<svg version="1.1" id="Ebene_1" xmlns="http://www.w3.org/2000/svg" xmlns:xlink="http://www.w3.org/1999/xlink" x="0px" y="0px"
	 width="600px" height="800px" viewBox="0 0 600 800" enable-background="new 0 0 600 800" xml:space="preserve">
<path id="path2294_1_" fill="none" stroke="#000000" stroke-width="5" d="
	M122.573,274.632c0,0,1.113-31.411,5.208-57.889c1.97-12.73,4.738-20.838,7.111-30.485c7.31-29.711,17.736-30.11,17.736-30.11
	s15.123-2.735,21.924-7.107c6.801-4.371-2.576-3.987,5.28-10.378c7.855-6.391,26.706-14.242,26.706-14.242l28.001-8.396
	c0,0,6.832-2.645,11.168-5.633s3.596-1.307,5.564-6.935c0.891-2.541,0.641-10.437,1.465-13.305c0.934-3.243,0.85-2.272,0.85-2.272
	c5.211-7.875,25.02-14.875,34.369-15.815"/>
</svg>
