<?xml version="1.0" encoding="utf-8"?>
<!-- Generator: Adobe Illustrator 16.2.0, SVG Export Plug-In . SVG Version: 6.00 Build 0)  -->
<!DOCTYPE svg PUBLIC "-//W3C//DTD SVG 1.1//EN" "http://www.w3.org/Graphics/SVG/1.1/DTD/svg11.dtd">
<svg version="1.1" id="Ebene_1" xmlns="http://www.w3.org/2000/svg" xmlns:xlink="http://www.w3.org/1999/xlink" x="0px" y="0px"
	 width="600px" height="800px" viewBox="0 0 600 800" enable-background="new 0 0 600 800" xml:space="preserve">
<path id="path2294_1_" fill="none" stroke="#000000" stroke-width="5" d="
	M415.859,731.881c-0.787,1.87-0.229,2.818-5.753,2.369c-11.318-0.923-37.426-10.154-37.426-10.154s-45.379-19.225-87.224-47.685
	c-34.939-23.763-68.479-55.386-78.597-65.175c-2-1.935-2.217-1.453-3.084-3.017c-0.867-1.564-0.457-0.913-0.843-4.152l-1.552-15.939
	l-33.086,2.172c0,0-1.357-16.072-3.188-30.891c-1.831-14.817-5.201-28.229-5.201-28.229s-6.887-17.951-16.791-30.448
	c-4.428-5.588-12.807-6.046-16.781-9.345c-4.915-4.079-7.344-7.227-5.995-15.943c1.349-8.717,12.41-18.928,12.41-18.928
	s8.006-4.495,12.468-9.919c4.461-5.424,4.222-3.308,2.326-17.37c-0.968-7.186-9.014-12.082-15.396-18.946
	c-6.654-7.156-8.015-4.267-10.182-11.488c-1.862-6.207,1.188-7.907,4.168-11.512c3.812-4.61,7.275-4.455,7.484-9.049
	c0.219-4.799,0,0,0.09-7.712l0.522-59.625c-0.014-2.634,0.3-11.038-1.496-13.931c-1.795-2.891-4.673-2.082-4.924-4.638
	c-0.25-2.556,3.361-3.144,2.399-5.737s-4.642-3.133-6.855-6.159c-2.213-3.027-0.78-5.798-0.78-5.798"/>
</svg>
