<?xml version="1.0" encoding="utf-8"?>
<!-- Generator: Adobe Illustrator 16.2.0, SVG Export Plug-In . SVG Version: 6.00 Build 0)  -->
<!DOCTYPE svg PUBLIC "-//W3C//DTD SVG 1.1//EN" "http://www.w3.org/Graphics/SVG/1.1/DTD/svg11.dtd">
<svg version="1.1" id="Ebene_1" xmlns="http://www.w3.org/2000/svg" xmlns:xlink="http://www.w3.org/1999/xlink" x="0px" y="0px"
	 width="600px" height="800px" viewBox="0 0 600 800" enable-background="new 0 0 600 800" xml:space="preserve">
<path id="path2294_1_" fill="none" stroke="#000000" stroke-width="5" d="
	M287.955,72.064c7.124-0.718,7.01,8.62,10.881,13.514c3.696,9.816,7.045,18.17,10.545,29.695
	c7.005,23.063,14.613,47.624,14.613,47.624l5.143,28.364l21.85,138.115c0,0,0.684,2.994,0.339,5.031s-0.503,1.21-1.717,3.117
	c-2.356,3.701-5.672,10.03-4.789,15.238c1.025,6.06,5.798,7.6,9.919,10.063c1.244,0.744,3.128,1.041,3.434,2.634
	c0.34,1.769,0,0,0.726,3.271l33.95,153.361c0,0-1.902,1.255,2.851,6.789s13.048,8.252,13.109,14.841
	c0.078,8.165-7.91,11.338-7.396,18.43c0.514,7.076,0,0,0.926,9.269l9.446,69.104l5.183,64.659l0.075,21.684
	c0,0-0.355,3.051-1.182,5.013"/>
</svg>
